<?xml version="1.0" encoding="UTF-8"?>
<!DOCTYPE svg PUBLIC "-//W3C//DTD SVG 1.1//EN" "https://www.w3.org/Graphics/SVG/1.1/DTD/svg11.dtd">
<!-- Creator: CorelDRAW X5 -->
<svg xmlns="https://www.w3.org/2000/svg" xml:space="preserve" width="115.862mm" height="37.3034mm" style="shape-rendering:geometricPrecision; text-rendering:geometricPrecision; image-rendering:optimizeQuality; fill-rule:evenodd; clip-rule:evenodd"
viewBox="0 0 856670 275817"
 xmlns:xlink="https://www.w3.org/1999/xlink">
 <defs>
  <style type="text/css">
   <![CDATA[
    .fil2 {fill:black;fill-rule:nonzero}
    .fil3 {fill:white;fill-rule:nonzero}
    .fil1 {fill:url(#id4)}
    .fil0 {fill:url(#id5)}
   ]]>
  </style>
  <mask id="id0">
  <linearGradient id="id1" gradientUnits="userSpaceOnUse" x1="1.11033e+006" y1="-1.16236e+006" x2="1.11033e+006" y2="-1.45024e+006">
   <stop offset="0" style="stop-opacity:0; stop-color:white"/>
   <stop offset="1" style="stop-opacity:1; stop-color:white"/>
  </linearGradient>
   <rect style="fill:url(#id1)" x="966973" y="-1450256" width="286721" height="287914"/>
  </mask>
  <mask id="id2">
  <linearGradient id="id3" gradientUnits="userSpaceOnUse" x1="226614" y1="-932670" x2="226614" y2="-1.45024e+006">
   <stop offset="0" style="stop-opacity:0; stop-color:white"/>
   <stop offset="1" style="stop-opacity:1; stop-color:white"/>
  </linearGradient>
   <rect style="fill:url(#id3)" x="-31198" y="-1450256" width="515624" height="517605"/>
  </mask>
  <linearGradient id="id4" gradientUnits="userSpaceOnUse" x1="226614" y1="-932670" x2="226614" y2="-1.45024e+006">
   <stop offset="0" style="stop-color:white"/>
   <stop offset="1" style="stop-color:#E3E3E3"/>
  </linearGradient>
  <linearGradient id="id5" gradientUnits="userSpaceOnUse" xlink:href="#id4" x1="1.11033e+006" y1="-1.16236e+006" x2="1.11033e+006" y2="-1.45024e+006">
  </linearGradient>
 </defs>
<symbol id="Fm0-208-0" viewBox="966992 -1450237 286684 287876">
 <polygon class="fil0" style="mask:url(#id0)" points="966992,-1450237 1253676,-1163157 966998,-1162362 "/>
</symbol>
<symbol id="Fm1-214-0" viewBox="-31179 -1450237 515586 517566">
 <polygon class="fil1" style="mask:url(#id2)" points="-31179,-932671 484408,-932671 -30986,-1450237 "/>
</symbol>
 <g id="Camada_x0020_1">
  <metadata id="CorelCorpID_0Corel-Layer"/>
  <polygon class="fil2" points="856670,275817 0,275817 0,0 856670,0 "/>
  <polygon class="fil3" points="223335,183614 223335,142513 232064,142513 232064,183614 "/>
  <path class="fil3" d="M279014 183614l-11094 0 -17919 -31093 -249 0c355,5489 538,9404 538,11746l0 19347 -7806 0 0 -41102 11016 0 17881 30786 192 0c-278,-5346 -423,-9117 -423,-11334l0 -19452 7864 0 0 41102z"/>
  <path id="1" class="fil3" d="M313795 172204c0,3704 -1336,6631 -4009,8771 -2672,2130 -6402,3205 -11170,3205 -4393,0 -8277,-825 -11661,-2476l0 -8099c2778,1238 5134,2111 7056,2610 1923,509 3692,768 5287,768 1914,0 3384,-365 4404,-1104 1028,-729 1537,-1814 1537,-3263 0,-796 -230,-1516 -682,-2149 -442,-624 -1106,-1229 -1981,-1814 -875,-576 -2653,-1507 -5335,-2783 -2519,-1181 -4404,-2313 -5663,-3397 -1258,-1084 -2259,-2351 -3018,-3800 -750,-1440 -1125,-3129 -1125,-5057 0,-3637 1240,-6497 3701,-8580 2471,-2073 5883,-3119 10238,-3119 2143,0 4182,260 6133,759 1942,508 3971,1219 6095,2140l-2817 6775c-2201,-902 -4018,-1526 -5450,-1881 -1433,-355 -2846,-538 -4240,-538 -1653,0 -2922,384 -3797,1152 -884,767 -1326,1775 -1326,3013 0,768 172,1440 538,2006 356,576 923,1122 1702,1660 779,538 2624,1497 5528,2879 3854,1843 6488,3685 7920,5528 1423,1843 2135,4107 2135,6794z"/>
  <polygon class="fil3" points="337123,183614 328394,183614 328394,149767 317214,149767 317214,142513 348313,142513 348313,149767 337123,149767 "/>
  <polygon id="1" class="fil3" points="354706,183614 354706,142513 363434,142513 363434,183614 "/>
  <polygon id="12" class="fil3" points="389736,183614 381007,183614 381007,149767 369826,149767 369826,142513 400926,142513 400926,149767 389736,149767 "/>
  <path class="fil3" d="M440679 142513l0 26592c0,3042 -673,5700 -2038,7984 -1365,2294 -3327,4040 -5903,5259 -2567,1219 -5614,1833 -9123,1833 -5297,0 -9412,-1363 -12334,-4069 -2932,-2706 -4393,-6410 -4393,-11113l0 -26486 8700 0 0 25162c0,3167 635,5489 1914,6967 1278,1487 3394,2226 6335,2226 2855,0 4931,-749 6210,-2236 1288,-1488 1932,-3829 1932,-7015l0 -25104 8700 0z"/>
  <polygon class="fil3" points="467045,183614 458316,183614 458316,149767 447135,149767 447135,142513 478235,142513 478235,149767 467045,149767 "/>
  <path class="fil3" d="M521992 163011c0,6804 -1692,12025 -5076,15681 -3374,3656 -8219,5489 -14525,5489 -6316,0 -11151,-1833 -14535,-5489 -3384,-3656 -5066,-8896 -5066,-15739 0,-6842 1692,-12072 5076,-15680 3393,-3609 8248,-5413 14583,-5413 6325,0 11160,1823 14516,5460 3345,3637 5027,8867 5027,15691zm-30050 0c0,4587 875,8042 2614,10374 1749,2322 4354,3484 7835,3484 6960,0 10449,-4626 10449,-13858 0,-9261 -3470,-13896 -10391,-13896 -3480,0 -6095,1171 -7864,3503 -1759,2332 -2643,5796 -2643,10393z"/>
  <polygon id="1" class="fil3" points="554100,183614 545506,183614 545506,142513 569106,142513 569106,149652 554100,149652 554100,160247 568068,160247 568068,167368 554100,167368 "/>
  <polygon class="fil3" points="601063,183614 577347,183614 577347,142513 601063,142513 601063,149652 586077,149652 586077,158673 600015,158673 600015,165813 586077,165813 586077,176417 601063,176417 "/>
  <path id="1" class="fil3" d="M643869 162665c0,6765 -1933,11948 -5787,15546 -3865,3599 -9431,5403 -16718,5403l-11660 0 0 -41102 12929 0c6720,0 11940,1766 15660,5316 3710,3542 5576,8484 5576,14837zm-9075 230c0,-8828 -3903,-13243 -11710,-13243l-4651 0 0 26765 3748 0c8412,0 12613,-4510 12613,-13522z"/>
  <polygon id="12" class="fil3" points="676170,183614 652454,183614 652454,142513 676170,142513 676170,149652 661184,149652 661184,158673 675122,158673 675122,165813 661184,165813 661184,176417 676170,176417 "/>
  <path id="123" class="fil3" d="M693541 160756l2816 0c2759,0 4797,-461 6114,-1372 1317,-921 1971,-2361 1971,-4337 0,-1948 -674,-3330 -2010,-4155 -1346,-826 -3422,-1238 -6238,-1238l-2653 0 0 11103zm0 7083l0 15776 -8729 0 0 -41102 11997 0c5595,0 9738,1017 12420,3051 2682,2035 4028,5115 4028,9261 0,2419 -663,4568 -1999,6449 -1336,1891 -3221,3359 -5662,4433 6201,9242 10238,15211 12113,17907l-9690 0 -9825 -15776 -4651 0z"/>
  <path class="fil3" d="M747901 183614l-2980 -9789 -15015 0 -2980 9789 -9411 0 14535 -41275 10671 0 14593 41275 -9411 0zm-5066 -17092c-2759,-8867 -4317,-13886 -4663,-15047 -345,-1161 -596,-2073 -749,-2754 -616,2399 -2394,8330 -5317,17802l10729 0z"/>
  <polygon class="fil3" points="763030,183614 763030,142513 771758,142513 771758,176417 788466,176417 788466,183614 "/>
  <path class="fil3" d="M237623 233252l-10772 -28100 -170 0c200,2228 304,4870 304,7934l0 20167 -3411 0 0 -31697 5560 0 10053 26146 177 0 10141 -26146 5516 0 0 31697 -3692 0 0 -20426c0,-2339 104,-4884 304,-7630l-170 0 -10862 28056 -2980 0z"/>
  <path id="1" class="fil3" d="M277827 233252l-711 -3382 -178 0c-1186,1488 -2372,2494 -3551,3027 -1179,525 -2654,792 -4418,792 -2358,0 -4211,-607 -5553,-1829 -1335,-1213 -2009,-2938 -2009,-5180 0,-4796 3847,-7312 11535,-7541l4040 -134 0 -1472c0,-1865 -401,-3241 -1208,-4130 -801,-888 -2083,-1332 -3854,-1332 -1980,0 -4226,607 -6732,1820l-1105 -2753c1171,-637 2454,-1140 3855,-1495 1393,-363 2795,-548 4203,-548 2832,0 4938,629 6309,1887 1363,1258 2053,3278 2053,6054l0 16215 -2677 0zm-8140 -2538c2240,0 4004,-614 5286,-1843 1283,-1229 1920,-2946 1920,-5159l0 -2146 -3603 148c-2869,104 -4938,547 -6198,1339 -1268,784 -1905,2013 -1905,3671 0,1303 393,2294 1187,2975 785,673 1890,1014 3313,1014z"/>
  <path id="12" class="fil3" d="M295619 230713c638,0 1253,-44 1846,-140 593,-96 1060,-193 1409,-289l0 2753c-393,185 -964,340 -1727,466 -756,118 -1446,186 -2053,186 -4604,0 -6902,-2427 -6902,-7267l0 -14136 -3410 0 0 -1732 3410 -1502 1519 -5069 2084 0 0 5506 6909 0 0 2797 -6909 0 0 13987c0,1428 341,2524 1023,3293 682,762 1616,1148 2802,1148z"/>
  <path id="123" class="fil3" d="M324176 221351c0,3871 -978,6898 -2928,9073 -1957,2176 -4656,3264 -8104,3264 -2127,0 -4017,-504 -5671,-1502 -1646,-992 -2921,-2427 -3817,-4293 -904,-1865 -1349,-4048 -1349,-6542 0,-3878 971,-6897 2914,-9058 1934,-2161 4633,-3241 8073,-3241 3336,0 5975,1110 7939,3323 1965,2213 2944,5203 2944,8977zm-18133 0c0,3034 607,5344 1823,6935 1216,1591 3003,2383 5368,2383 2357,0 4151,-792 5374,-2368 1224,-1584 1831,-3900 1831,-6950 0,-3026 -608,-5321 -1831,-6890 -1223,-1562 -3032,-2346 -5419,-2346 -2365,0 -4144,770 -5345,2317 -1202,1547 -1801,3855 -1801,6919z"/>
  <path id="1234" class="fil3" d="M356565 216644l10794 0 0 15416c-1683,532 -3388,940 -5130,1213 -1735,274 -3751,415 -6035,415 -4811,0 -8547,-1428 -11231,-4285 -2676,-2856 -4018,-6853 -4018,-12004 0,-3293 667,-6179 1987,-8658 1326,-2479 3233,-4374 5724,-5684 2490,-1303 5412,-1962 8755,-1962 3388,0 6546,622 9466,1865l-1430 3257c-2870,-1214 -5627,-1821 -8274,-1821 -3870,0 -6887,1148 -9060,3442 -2172,2301 -3254,5491 -3254,9561 0,4285 1045,7527 3136,9739 2091,2213 5167,3316 9222,3316 2195,0 4345,-252 6450,-755l0 -9761 -7102 0 0 -3294z"/>
  <path id="12345" class="fil3" d="M385292 209052c1060,0 2009,89 2847,266l-497 3338c-986,-222 -1853,-325 -2609,-325 -1921,0 -3573,777 -4938,2339 -1372,1562 -2053,3508 -2053,5832l0 12751 -3603 0 0 -23763 2972 0 416 4403 170 0c883,-1547 1951,-2738 3196,-3582 1246,-836 2609,-1258 4100,-1258z"/>
  <path id="123456" class="fil3" d="M412247 221351c0,3871 -978,6898 -2928,9073 -1957,2176 -4656,3264 -8104,3264 -2127,0 -4017,-504 -5671,-1502 -1646,-992 -2921,-2427 -3817,-4293 -904,-1865 -1349,-4048 -1349,-6542 0,-3878 971,-6897 2914,-9058 1934,-2161 4633,-3241 8073,-3241 3336,0 5975,1110 7939,3323 1965,2213 2944,5203 2944,8977zm-18133 0c0,3034 607,5344 1823,6935 1216,1591 3003,2383 5368,2383 2357,0 4151,-792 5374,-2368 1224,-1584 1831,-3900 1831,-6950 0,-3026 -608,-5321 -1831,-6890 -1223,-1562 -3032,-2346 -5419,-2346 -2365,0 -4144,770 -5345,2317 -1202,1547 -1801,3855 -1801,6919z"/>
  <path id="1234567" class="fil3" d="M433924 226769c0,2213 -823,3915 -2476,5114 -1653,1207 -3966,1806 -6954,1806 -3151,0 -5612,-504 -7384,-1502l0 -3338c1148,577 2372,1036 3684,1369 1312,333 2573,496 3789,496 1883,0 3329,-296 4345,-895 1016,-600 1519,-1517 1519,-2746 0,-925 -400,-1717 -1201,-2376 -808,-658 -2372,-1435 -4708,-2331 -2217,-822 -3789,-1539 -4722,-2154 -934,-614 -1631,-1310 -2083,-2095 -460,-777 -682,-1709 -682,-2797 0,-1939 785,-3464 2365,-4581 1579,-1125 3744,-1687 6494,-1687 2565,0 5063,526 7517,1562l-1282 2931c-2395,-985 -4560,-1473 -6495,-1473 -1712,0 -3002,266 -3869,799 -867,532 -1305,1272 -1305,2212 0,637 163,1177 489,1629 326,444 853,873 1579,1272 719,407 2112,992 4166,1761 2824,1022 4730,2058 5724,3101 993,1036 1490,2346 1490,3922z"/>
  <path id="12345678" class="fil3" d="M455141 226769c0,2213 -823,3915 -2476,5114 -1653,1207 -3966,1806 -6954,1806 -3151,0 -5612,-504 -7384,-1502l0 -3338c1148,577 2372,1036 3684,1369 1312,333 2573,496 3789,496 1883,0 3329,-296 4345,-895 1016,-600 1519,-1517 1519,-2746 0,-925 -400,-1717 -1201,-2376 -808,-658 -2372,-1435 -4708,-2331 -2217,-822 -3789,-1539 -4722,-2154 -934,-614 -1631,-1310 -2083,-2095 -460,-777 -682,-1709 -682,-2797 0,-1939 785,-3464 2365,-4581 1579,-1125 3744,-1687 6494,-1687 2565,0 5063,526 7517,1562l-1282 2931c-2395,-985 -4560,-1473 -6495,-1473 -1712,0 -3002,266 -3869,799 -867,532 -1305,1272 -1305,2212 0,637 163,1177 489,1629 326,444 853,873 1579,1272 719,407 2112,992 4166,1761 2824,1022 4730,2058 5724,3101 993,1036 1490,2346 1490,3922z"/>
  <path id="123456789" class="fil3" d="M481548 221351c0,3871 -978,6898 -2928,9073 -1957,2176 -4656,3264 -8104,3264 -2127,0 -4017,-504 -5671,-1502 -1646,-992 -2921,-2427 -3817,-4293 -904,-1865 -1349,-4048 -1349,-6542 0,-3878 971,-6897 2914,-9058 1934,-2161 4633,-3241 8073,-3241 3336,0 5975,1110 7939,3323 1965,2213 2944,5203 2944,8977zm-18133 0c0,3034 607,5344 1823,6935 1216,1591 3003,2383 5368,2383 2357,0 4151,-792 5374,-2368 1224,-1584 1831,-3900 1831,-6950 0,-3026 -608,-5321 -1831,-6890 -1223,-1562 -3032,-2346 -5419,-2346 -2365,0 -4144,770 -5345,2317 -1202,1547 -1801,3855 -1801,6919z"/>
  <path class="fil3" d="M144822 80437c0,2228 -1802,4025 -4019,4025l-33278 0c-2220,0 -4020,-1797 -4020,-4025l0 -33267c0,-2225 1800,-4024 4020,-4024l33278 0c2217,0 4019,1800 4019,4024l0 33267z"/>
  <path class="fil3" d="M194398 80437c0,2228 -1803,4025 -4019,4025l-33273 0c-2225,0 -4024,-1797 -4024,-4025l0 -33267c0,-2225 1800,-4024 4024,-4024l33273 0c2217,0 4019,1800 4019,4024l0 33267z"/>
  <path class="fil3" d="M194398 179597c0,2223 -1803,4019 -4019,4019l-33273 0c-2225,0 -4024,-1797 -4024,-4019l0 -33278c0,-2220 1800,-4020 4024,-4020l33273 0c2217,0 4019,1800 4019,4020l0 33278z"/>
  <path class="fil3" d="M95243 129987c0,2223 -1803,4025 -4019,4025l-33278 0c-2214,0 -4019,-1803 -4019,-4025l0 -33272c0,-2220 1805,-4019 4019,-4019l33278 0c2217,0 4019,1800 4019,4019l0 33272z"/>
  <path class="fil3" d="M144822 129987c0,2223 -1802,4025 -4019,4025l-33278 0c-2220,0 -4020,-1803 -4020,-4025l0 -33272c0,-2220 1800,-4019 4020,-4019l33278 0c2217,0 4019,1800 4019,4019l0 33272z"/>
  <path class="fil3" d="M95243 179597c0,2223 -1803,4019 -4019,4019l-33278 0c-2214,0 -4019,-1797 -4019,-4019l0 -33278c0,-2220 1805,-4020 4019,-4020l33278 0c2217,0 4019,1800 4019,4020l0 33278z"/>
  <path class="fil3" d="M144822 179597c0,2223 -1802,4019 -4019,4019l-33278 0c-2220,0 -4020,-1797 -4020,-4019l0 -33278c0,-2220 1800,-4020 4020,-4020l33278 0c2217,0 4019,1800 4019,4020l0 33278z"/>
  <path class="fil3" d="M95243 229223c0,2223 -1803,4025 -4019,4025l-33278 0c-2214,0 -4019,-1803 -4019,-4025l0 -33272c0,-2220 1805,-4019 4019,-4019l33278 0c2217,0 4019,1800 4019,4019l0 33272z"/>
  <path class="fil3" d="M144822 229223c0,2223 -1802,4025 -4019,4025l-33278 0c-2220,0 -4020,-1803 -4020,-4025l0 -33272c0,-2220 1800,-4019 4020,-4019l33278 0c2217,0 4019,1800 4019,4019l0 33272z"/>
  <path class="fil3" d="M97312 63804c0,12549 -10173,22721 -22722,22721 -12551,0 -22727,-10173 -22727,-22721 0,-12554 10175,-22727 22727,-22727 12549,0 22722,10173 22722,22727z"/>
 </g>
</svg>
